<?xml version="1.0" encoding="utf-8"?>
<!-- Generator: Adobe Illustrator 22.0.0, SVG Export Plug-In . SVG Version: 6.00 Build 0)  -->
<svg version="1.1" xmlns="http://www.w3.org/2000/svg" xmlns:xlink="http://www.w3.org/1999/xlink" x="0px" y="0px"
	 viewBox="0 0 1920 1080" style="enable-background:new 0 0 1920 1080;" xml:space="preserve">
<style type="text/css">
	.st0{fill:#754C24;}
	.st1{opacity:0.5;fill:#CCCCCC;}
	.st2{fill:#FFDBAC;}
	.st3{fill:#E8820B;}
	.st4{fill:none;stroke:#000000;stroke-width:1.0256;stroke-miterlimit:10;}
	.st5{fill:#8F272D;}
	.st6{fill:#FFFFFF;}
	.st7{fill:#ED1C24;}
	.st8{fill:none;stroke:#000000;stroke-width:3;stroke-miterlimit:10;}
	.st9{opacity:0.4;fill:#FFFFFF;}
	.st10{opacity:0.2;fill:#FFFFFF;}
	.st11{opacity:0.2;}
	.st12{fill:#D22E18;}
	.st13{fill:#F7931E;}
	.st14{fill:#18D26E;}
	.st15{fill:#006837;}
	.st16{fill:#13A456;}
	.st17{fill:#FFFFC3;}
	.st18{font-family:'Calibri';}
	.st19{font-size:69.4046px;}
	.st20{fill:#F7931E;stroke:#000000;stroke-width:3;stroke-miterlimit:10;}
	.st21{fill:#ED1C24;stroke:#000000;stroke-width:3;stroke-miterlimit:10;}
	.st22{fill:#A67C52;stroke:#000000;stroke-width:3;stroke-miterlimit:10;}
</style>
<g id="hair">
	<path class="st0" d="M1444.5,289.5h-162V217c0-7.5,6-13.5,13.5-13.5h135c7.5,0,13.5,6,13.5,13.5V289.5z"/>
	<path class="st0" d="M1431,204h-139v-4.5c0-22.6,18.4-41,41-41h80.8c9.5,0,17.3,7.7,17.3,17.3V204z"/>
	<path class="st1" d="M1346,191h-28c-1.7,0-3-1.3-3-3l0,0c0-1.7,1.3-3,3-3h28c1.7,0,3,1.3,3,3l0,0C1349,189.7,1347.7,191,1346,191z"
		/>
	<path class="st1" d="M1393,176h-56c-1.7,0-3-1.3-3-3l0,0c0-1.7,1.3-3,3-3h56c1.7,0,3,1.3,3,3l0,0C1396,174.7,1394.7,176,1393,176z"
		/>
	<path class="st1" d="M1405,194h-33c-1.7,0-3-1.3-3-3l0,0c0-1.7,1.3-3,3-3h33c1.7,0,3,1.3,3,3l0,0C1408,192.7,1406.7,194,1405,194z"
		/>
</g>
<g id="ears">
	<ellipse class="st2" cx="1285" cy="302" rx="16" ry="13"/>
	<ellipse class="st3" cx="1290" cy="301.9" rx="10" ry="9.1"/>
	<ellipse class="st2" cx="1443" cy="302" rx="16" ry="13"/>
	<ellipse class="st3" cx="1438" cy="301.9" rx="10" ry="9.1"/>
</g>
<g id="neck">
	<rect x="1345.1" y="396" class="st3" width="37" height="50"/>
</g>
<g id="face">
	<path class="st2" d="M1363.6,412L1363.6,412c-41.5,0-75.5-34-75.5-75.5v-91.2c0-22.7,18.6-41.3,41.3-41.3h68.4
		c22.7,0,41.3,18.6,41.3,41.3v91.2C1439.1,378,1405.2,412,1363.6,412z"/>
	<path class="st4" d="M1443.5,288.5"/>
</g>
<g id="eyebrows_and_eyes">
	<path d="M1342,245h-33c-3.8,0-7-3.1-7-7l0,0c0-3.9,3.2-7,7-7h33c3.8,0,7,3.1,7,7l0,0C1349,241.9,1345.8,245,1342,245z"/>
	<path d="M1415,245h-33c-3.8,0-7-3.1-7-7l0,0c0-3.9,3.2-7,7-7h33c3.8,0,7,3.1,7,7l0,0C1422,241.9,1418.8,245,1415,245z"/>
	<path d="M1325,298L1325,298c-3.3,0-6-2.7-6-6v-11c0-3.3,2.7-6,6-6l0,0c3.3,0,6,2.7,6,6v11C1331,295.3,1328.3,298,1325,298z"/>
	<path d="M1401,298L1401,298c-3.3,0-6-2.7-6-6v-11c0-3.3,2.7-6,6-6l0,0c3.3,0,6,2.7,6,6v11C1407,295.3,1404.3,298,1401,298z"/>
</g>
<g id="nose_and_mouth">
	<path class="st5" d="M1408,347c0,6.7-1.5,13.1-4.3,18.7c-6.9,14.4-21.7,24.3-38.7,24.3c-7.6,0-14.7-2-20.9-5.4
		c-13.2-7.3-22.1-21.4-22.1-37.6c0-0.7,0-1.3,0.1-2h85.9C1408,345.7,1408,346.3,1408,347z"/>
	<path class="st6" d="M1398.5,356h-67.1c-0.8,0-1.4-0.6-1.4-1.4V345h70v9.5C1400,355.3,1399.3,356,1398.5,356z"/>
	<path class="st7" d="M1403.7,365.7c-6.9,14.4-21.7,24.3-38.7,24.3c-7.6,0-14.7-2-20.9-5.4c-0.1-0.5-0.1-1-0.1-1.6
		c0-12.7,16.1-23,36-23C1389.1,360,1397.4,362.1,1403.7,365.7z"/>
	<path class="st3" d="M1367,333h-6c-1.1,0-2-0.9-2-2l2-50c0-1.1,0.9-2,2-2h2c1.1,0,2,0.9,2,2l2,50C1369,332.1,1368.1,333,1367,333z"
		/>
</g>
<g id="specs">
	<path class="st8" d="M1358,286c0,13.5-8.4,25-20.2,29.8c-1.7,0.7-3.5,1.2-5.3,1.6c-2.1,0.4-4.3,0.7-6.6,0.7
		c-14.2,0-26.2-9.2-30.4-22c-0.6-1.7-1-3.5-1.3-5.3c-0.1-0.5-0.2-1.1-0.2-1.6c-0.1-1-0.1-2-0.1-3c0-0.7,0-1.3,0.1-2
		c0.7-11.5,7.5-21.4,17.3-26.5c1.5-0.8,3-1.4,4.6-1.9c3.2-1,6.5-1.6,10-1.6c15.4,0,28.3,10.9,31.3,25.5c0.3,1.6,0.5,3.3,0.6,5
		C1358,285,1358,285.5,1358,286z"/>
	<path class="st8" d="M1433.5,286.5c0,14.2-9.3,26.3-22.1,30.4c-1.9,0.6-3.8,1-5.8,1.3c-1.4,0.2-2.7,0.3-4.1,0.3
		c-13.3,0-24.8-8.2-29.6-19.7c-0.7-1.8-1.3-3.7-1.7-5.6c-0.4-2.1-0.7-4.4-0.7-6.6v0c0-12.8,7.6-23.9,18.5-29h0
		c1.6-0.7,3.2-1.3,4.9-1.8c2.8-0.8,5.7-1.2,8.7-1.2c14.9,0,27.5,10.2,31,24.1c0.4,1.7,0.7,3.4,0.9,5.1
		C1433.5,284.6,1433.5,285.6,1433.5,286.5z"/>
	<rect x="1358.5" y="284.5" width="11" height="5"/>
	<rect x="1432" y="284" width="11" height="5"/>
	<rect x="1282" y="284" width="13" height="5"/>
	<circle class="st9" cx="1326" cy="286" r="32"/>
	<circle class="st9" cx="1401.5" cy="286.5" r="31.5"/>
	<path class="st9" d="M1337.8,315.8c-1.7,0.7-3.5,1.2-5.3,1.6l-1.3-0.8l-34.3-19.8h0l-1.3-0.8c-0.6-1.7-1-3.5-1.3-5.3l1.1,0.6
		l41.3,23.8L1337.8,315.8z"/>
	<path class="st9" d="M1411.4,316.9c-1.9,0.6-3.8,1-5.8,1.3l-0.7-0.4h0l-32.3-18.6l-0.7-0.4c-0.7-1.8-1.3-3.7-1.7-5.6l0.6,0.3
		l40.1,23.1L1411.4,316.9z"/>
	<path class="st9" d="M1357.3,279.5c0.3,1.6,0.5,3.3,0.6,5l-1-0.6l-44.5-25.7l-1-0.6c1.5-0.8,3-1.4,4.6-1.9l1.2,0.7l39,22.5
		L1357.3,279.5z"/>
	<polygon class="st10" points="1361.7,284.5 1360.8,286.1 1358.5,284.8 1358.5,284.5 	"/>
	<path class="st9" d="M1433.4,283.7l-0.5-0.3l-44.3-25.6l-0.5-0.3c1.6-0.7,3.2-1.3,4.9-1.8l0.6,0.3l38.4,22.2l0.6,0.4
		C1432.9,280.2,1433.2,281.9,1433.4,283.7z"/>
</g>
<g id="legs">
	<ellipse class="st11" cx="1363.5" cy="807.4" rx="87.5" ry="2.6"/>
	<path class="st12" d="M1427,560c-2.9,31.4-29.5,56-61.9,56c-32.4,0-58.9-24.6-61.9-56H1427z"/>
	<polygon class="st12" points="1358,793.4 1339,793.4 1334,603 1362,603 	"/>
	<polygon class="st12" points="1392,793.4 1373,793.4 1368,603 1396,603 	"/>
	<rect x="1338" y="783.8" class="st13" width="20" height="9.6"/>
	<rect x="1373" y="783.8" class="st13" width="20" height="9.6"/>
	<path class="st14" d="M1358,805.6h-39v-5c0-5.5,4.4-9.9,9.9-9.9h29.1V805.6z"/>
	<rect x="1319" y="803.2" class="st15" width="39" height="2.5"/>
	<path class="st14" d="M1373,805.6h39v-5c0-5.5-4.4-9.9-9.9-9.9H1373V805.6z"/>
	
		<rect x="1373" y="803.2" transform="matrix(-1 -3.927182e-11 3.927182e-11 -1 2785 1608.7911)" class="st15" width="39" height="2.5"/>
</g>
<g id="torso">
	<path class="st16" d="M1405.8,440h-84l1.2-8.5c0.5-3.2,3.1-5.5,6.3-5.5h68.9c3.2,0,5.9,2.3,6.3,5.5L1405.8,440z"/>
	<path class="st14" d="M1428,560h-126V445c0-4.4,3.6-8,8-8h110c4.4,0,8,3.6,8,8V560z"/>
</g>
<g id="fore_arm">
	<path class="st14" d="M1324.5,455.8l-28.6,49.5l-13.8,24c-0.3,0.6-0.8,1.1-1.2,1.6l-15.8-4.1c0,0,0,0,0,0c-4.4-4.8-5.4-12-2-18
		l3.4-5.9l34.9-60.4c1.9-3.3,6.2-4.5,9.6-2.6l11.1,6.4C1325.3,448.2,1326.5,452.5,1324.5,455.8z"/>
	<path class="st14" d="M1417.7,466.6l-7.4-12.8c-1.9-3.3-0.8-7.6,2.6-9.6l92.6-53.4c3.3-1.9,7.6-0.8,9.6,2.6l7.4,12.8
		c1.9,3.3,0.8,7.6-2.6,9.6l-92.6,53.4C1424,471,1419.7,469.9,1417.7,466.6z"/>
</g>
<g id="arm1">
	<path class="st2" d="M1183.1,513.2l0.2,5.1c0.2,3.8-2.8,7.1-6.7,7.3l-14.3,0.6c-3.8,0.2-7.1-2.8-7.3-6.7l-0.2-5.1
		c-0.2-3.8,2.8-7.1,6.7-7.3l14.3-0.6C1179.6,506.4,1182.9,509.4,1183.1,513.2z"/>
	<path class="st16" d="M1210.7,510l0.6,10.9c0.2,3.6-2.6,6.7-6.2,6.9l-20.7,1.1c-3.6,0.2-6.7-2.6-6.9-6.2l-0.6-10.9
		c-0.2-3.6,2.6-6.7,6.2-6.9l20.7-1.1C1207.4,503.6,1210.5,506.4,1210.7,510z"/>
	<path class="st14" d="M1187.4,523.9l-0.6-13.9c-0.2-4.2,2.8-7.7,6.7-7.8l69.2-1.8l7.4-0.2c3.2-0.1,6.3,0.9,8.8,2.7c0,0,0,0,0,0
		c5,4.6,7,12.4,4.4,19.2l-2.6,6.8c-0.4,0.1-0.8,0.1-1.2,0.1l-28.4,0.7l-56.4,1.4C1190.9,531.5,1187.6,528.2,1187.4,523.9z"/>
</g>
<g id="banner">
	<path class="st17" d="M1746.8,276h-259c-1.5,0-2.8-1.2-2.8-2.8v-150c0-1.5,1.2-2.8,2.8-2.8h259c1.5,0,2.8,1.2,2.8,2.8v150
		C1749.5,274.8,1748.3,276,1746.8,276z"/>
	<text transform="matrix(0.9843 0 0 1 1500 181.6289)" class="st18 st19">QUIZ</text>
	<text transform="matrix(0.9843 0 0 1 1572 253.6289)" class="st18 st19">TIME</text>
	
		<rect x="1654.4" y="165.3" transform="matrix(0.759 -0.651 0.651 0.759 291.7744 1135.8938)" class="st20" width="52" height="17"/>
	<path class="st21" d="M1707.7,139.5l-9.8,8.4l11.1,12.9l9.8-8.4c1.8-1.5,2-4.2,0.5-6l-5.5-6.4
		C1712.2,138.2,1709.5,138,1707.7,139.5z"/>
	<path class="st22" d="M1665.4,198.5l-11.5,2.2l-4.2,0.8c-0.8,0.2-1.4-0.6-1.2-1.3l1.4-4l4-11.4c0.2-0.6,0.8-0.8,1.4-0.6
		c0.1,0.1,0.3,0.1,0.4,0.3l10.4,12.1c0.1,0.2,0.2,0.3,0.3,0.5C1666.4,197.7,1666,198.4,1665.4,198.5z"/>
	<path d="M1654.8,199.7l-4.2,0.8c-0.8,0.2-1.4-0.6-1.2-1.3l1.4-4L1654.8,199.7z"/>
	<line class="st8" x1="1658.8" y1="187.8" x2="1698" y2="153.9"/>
	<line class="st8" x1="1663" y1="192.6" x2="1702.3" y2="158.7"/>
</g>
<g id="arm2">
	<path class="st2" d="M1566.4,295.9l-2.8-1.2c-4.7-2-7-7.4-5-12.1l5.8-14.1c2-4.7,7.4-7,12.1-5l2.8,1.2c4.7,2,7,7.4,5,12.1
		l-5.8,14.1C1576.6,295.5,1571.2,297.8,1566.4,295.9z"/>
	<path class="st16" d="M1562.6,286.6l10.5,5.1c3.3,1.6,4.6,5.5,3.1,8.8l-9,18.7c-1.6,3.3-5.5,4.6-8.8,3.1l-10.5-5.1
		c-3.3-1.6-4.6-5.5-3.1-8.8l9-18.7C1555.4,286.4,1559.3,285,1562.6,286.6z"/>
	<path class="st14" d="M1516.5,413.9l-14.8-7.2c-3.5-1.7-4.9-5.9-3.2-9.4l46.6-96.2c1.7-3.5,5.9-4.9,9.4-3.2l14.8,7.2
		c3.5,1.7,4.9,5.9,3.2,9.4l-46.6,96.2C1524.2,414.2,1520,415.6,1516.5,413.9z"/>
</g>
</svg>
